<?xml version="1.0" standalone="no"?>
<!DOCTYPE svg PUBLIC "-//W3C//DTD SVG 20010904//EN"
 "http://www.w3.org/TR/2001/REC-SVG-20010904/DTD/svg10.dtd">
<svg version="1.0" xmlns="http://www.w3.org/2000/svg"
 width="340.000000pt" height="270.000000pt" viewBox="0 0 340.000000 270.000000"
 preserveAspectRatio="xMidYMid meet">

<g transform="translate(0.000000,270.000000) scale(0.100000,-0.100000)"
fill="#000000" stroke="none">
<path d="M663 2172 c-54 -48 -167 -149 -250 -225 l-153 -136 133 -144 c300
-326 1012 -1093 1149 -1239 l148 -157 438 472 c713 767 982 1060 982 1068 0 4
-111 107 -247 228 l-248 221 -927 0 -928 0 -97 -88z m195 -169 c-74 -77 -126
-155 -172 -256 l-32 -70 -52 59 c-29 32 -51 61 -50 64 2 4 68 66 148 138 134
121 148 132 184 132 l39 0 -65 -67z m1018 37 c165 -42 254 -123 271 -245 l6
-45 264 0 265 0 -4 95 c-1 52 0 94 4 93 3 -2 39 -34 78 -72 70 -67 70 -69 53
-90 -10 -11 -69 -78 -132 -148 l-115 -128 -56 54 c-63 60 -106 85 -213 121
-133 44 -239 56 -597 65 -334 8 -404 16 -475 52 -97 50 -85 147 26 204 141 71
438 92 625 44z m404 20 c0 -5 -2 -10 -4 -10 -3 0 -8 5 -11 10 -3 6 -1 10 4 10
6 0 11 -4 11 -10z m-1145 -735 c66 -8 293 -26 505 -40 387 -25 523 -41 566
-70 32 -21 30 -38 -6 -69 -55 -46 -118 -58 -329 -63 -184 -5 -195 -5 -210 14
-91 112 -349 155 -491 83 l-39 -20 -54 58 c-30 31 -67 72 -82 90 l-27 32 24 0
c12 0 77 -7 143 -15z m455 -506 c63 -7 150 -9 218 -5 l114 6 -31 -37 c-17 -21
-69 -78 -116 -128 l-86 -90 -65 70 c-170 184 -190 209 -164 202 14 -3 72 -11
130 -18z"/>
</g>
</svg>
